# MagicaVoxel @ Ephtracy

# group
g camaraTorreta

# material
mtllib camaraTorreta.mtl
usemtl palette

# normals
vn -1 0 0
vn 1 0 0
vn 0 0 1
vn 0 0 -1
vn 0 -1 0
vn 0 1 0

# texcoords
vt 0.185547 0.5
vt 0.919922 0.5
vt 0.994141 0.5

# verts
v -3 0 2
v -3 0 -20
v -3 1 3
v -3 1 2
v -3 4 4
v -3 4 3
v -3 5 5
v -3 5 4
v -3 6 6
v -3 6 5
v -3 7 6
v -3 7 -20
v -1 0 2
v -1 0 1
v -1 1 2
v -1 1 1
v -1 4 2
v -1 4 1
v -1 5 2
v -1 5 1
v 3 0 2
v 3 0 1
v 3 1 3
v 3 1 2
v 3 1 1
v 3 4 4
v 3 4 3
v 3 4 2
v 3 4 1
v 3 5 5
v 3 5 4
v 3 6 5
v 3 6 1
v -2 0 2
v -2 0 1
v -2 1 3
v -2 1 2
v -2 1 1
v -2 4 4
v -2 4 3
v -2 4 2
v -2 4 1
v -2 5 5
v -2 5 4
v -2 6 5
v -2 6 1
v 2 0 2
v 2 0 1
v 2 1 2
v 2 1 1
v 2 4 2
v 2 4 1
v 2 5 2
v 2 5 1
v 4 0 2
v 4 0 -20
v 4 1 3
v 4 1 2
v 4 4 4
v 4 4 3
v 4 5 5
v 4 5 4
v 4 6 6
v 4 6 5
v 4 7 6
v 4 7 -20
v -3 6 6
v -3 7 6
v 4 6 6
v 4 7 6
v -3 5 5
v -3 6 5
v -2 5 5
v -2 6 5
v 3 5 5
v 3 6 5
v 4 5 5
v 4 6 5
v -3 4 4
v -3 5 4
v -2 4 4
v -2 5 4
v 3 4 4
v 3 5 4
v 4 4 4
v 4 5 4
v -3 1 3
v -3 4 3
v -2 1 3
v -2 4 3
v 3 1 3
v 3 4 3
v 4 1 3
v 4 4 3
v -3 0 2
v -3 1 2
v -2 0 2
v -2 1 2
v -2 4 2
v -1 0 2
v -1 1 2
v -1 4 2
v -1 5 2
v 2 0 2
v 2 1 2
v 2 4 2
v 2 5 2
v 3 0 2
v 3 1 2
v 3 4 2
v 4 0 2
v 4 1 2
v -2 0 1
v -2 1 1
v -2 4 1
v -2 6 1
v -1 0 1
v -1 1 1
v -1 4 1
v -1 5 1
v 2 0 1
v 2 1 1
v 2 4 1
v 2 5 1
v 3 0 1
v 3 1 1
v 3 4 1
v 3 6 1
v -3 0 -20
v -3 7 -20
v 4 0 -20
v 4 7 -20
v -3 0 2
v -2 0 2
v -1 0 2
v 2 0 2
v 3 0 2
v 4 0 2
v -2 0 1
v -1 0 1
v 2 0 1
v 3 0 1
v -3 0 -20
v 4 0 -20
v -3 1 3
v -2 1 3
v 3 1 3
v 4 1 3
v -3 1 2
v -2 1 2
v -1 1 2
v 2 1 2
v 3 1 2
v 4 1 2
v -2 1 1
v -1 1 1
v 2 1 1
v 3 1 1
v -3 4 4
v -2 4 4
v 3 4 4
v 4 4 4
v -3 4 3
v -2 4 3
v 3 4 3
v 4 4 3
v -3 5 5
v -2 5 5
v 3 5 5
v 4 5 5
v -3 5 4
v -2 5 4
v 3 5 4
v 4 5 4
v -3 6 6
v 4 6 6
v -3 6 5
v -2 6 5
v 3 6 5
v 4 6 5
v -2 6 1
v 3 6 1
v -2 4 2
v -1 4 2
v 2 4 2
v 3 4 2
v -2 4 1
v -1 4 1
v 2 4 1
v 3 4 1
v -1 5 2
v 2 5 2
v -1 5 1
v 2 5 1
v -3 7 6
v 4 7 6
v -3 7 -20
v 4 7 -20

# faces
f 4/3/1 2/3/1 1/3/1
f 6/3/1 4/3/1 3/3/1
f 8/3/1 6/3/1 5/3/1
f 10/3/1 8/3/1 7/3/1
f 11/3/1 10/3/1 9/3/1
f 12/3/1 2/3/1 4/3/1
f 12/3/1 10/3/1 11/3/1
f 12/3/1 4/3/1 6/3/1
f 12/3/1 8/3/1 10/3/1
f 12/3/1 6/3/1 8/3/1
f 15/2/1 14/2/1 13/2/1
f 16/2/1 14/2/1 15/2/1
f 19/2/1 18/2/1 17/2/1
f 20/2/1 18/2/1 19/2/1
f 24/3/1 22/3/1 21/3/1
f 25/3/1 22/3/1 24/3/1
f 27/3/1 24/3/1 23/3/1
f 28/3/1 24/3/1 27/3/1
f 31/3/1 27/3/1 26/3/1
f 31/3/1 29/3/1 28/3/1
f 31/3/1 28/3/1 27/3/1
f 32/3/1 31/3/1 30/3/1
f 33/3/1 29/3/1 31/3/1
f 33/3/1 31/3/1 32/3/1
f 34/3/2 35/3/2 37/3/2
f 37/3/2 35/3/2 38/3/2
f 36/3/2 37/3/2 40/3/2
f 40/3/2 37/3/2 41/3/2
f 39/3/2 40/3/2 44/3/2
f 41/3/2 42/3/2 44/3/2
f 40/3/2 41/3/2 44/3/2
f 43/3/2 44/3/2 45/3/2
f 44/3/2 42/3/2 46/3/2
f 45/3/2 44/3/2 46/3/2
f 47/2/2 48/2/2 49/2/2
f 49/2/2 48/2/2 50/2/2
f 51/2/2 52/2/2 53/2/2
f 53/2/2 52/2/2 54/2/2
f 55/3/2 56/3/2 58/3/2
f 57/3/2 58/3/2 60/3/2
f 59/3/2 60/3/2 62/3/2
f 61/3/2 62/3/2 64/3/2
f 63/3/2 64/3/2 65/3/2
f 58/3/2 56/3/2 66/3/2
f 65/3/2 64/3/2 66/3/2
f 60/3/2 58/3/2 66/3/2
f 64/3/2 62/3/2 66/3/2
f 62/3/2 60/3/2 66/3/2
f 69/3/3 68/3/3 67/3/3
f 70/3/3 68/3/3 69/3/3
f 73/3/3 72/3/3 71/3/3
f 74/3/3 72/3/3 73/3/3
f 77/3/3 76/3/3 75/3/3
f 78/3/3 76/3/3 77/3/3
f 81/3/3 80/3/3 79/3/3
f 82/3/3 80/3/3 81/3/3
f 85/3/3 84/3/3 83/3/3
f 86/3/3 84/3/3 85/3/3
f 89/3/3 88/3/3 87/3/3
f 90/3/3 88/3/3 89/3/3
f 93/3/3 92/3/3 91/3/3
f 94/3/3 92/3/3 93/3/3
f 97/3/3 96/3/3 95/3/3
f 98/3/3 96/3/3 97/3/3
f 101/2/3 99/2/3 98/2/3
f 102/2/3 99/2/3 101/2/3
f 104/2/3 101/2/3 100/2/3
f 104/2/3 103/2/3 102/2/3
f 104/2/3 102/2/3 101/2/3
f 105/2/3 103/2/3 104/2/3
f 106/2/3 103/2/3 105/2/3
f 107/2/3 103/2/3 106/2/3
f 109/2/3 106/2/3 105/2/3
f 110/2/3 106/2/3 109/2/3
f 111/3/3 109/3/3 108/3/3
f 112/3/3 109/3/3 111/3/3
f 117/3/3 114/3/3 113/3/3
f 118/3/3 114/3/3 117/3/3
f 119/1/3 116/1/3 115/1/3
f 120/1/3 116/1/3 119/1/3
f 124/1/3 116/1/3 120/1/3
f 125/3/3 122/3/3 121/3/3
f 126/3/3 122/3/3 125/3/3
f 127/1/3 124/1/3 123/1/3
f 128/1/3 116/1/3 124/1/3
f 128/1/3 124/1/3 127/1/3
f 129/3/4 130/3/4 131/3/4
f 131/3/4 130/3/4 132/3/4
f 139/3/5 134/3/5 133/3/5
f 140/2/5 136/2/5 135/2/5
f 141/2/5 136/2/5 140/2/5
f 142/3/5 138/3/5 137/3/5
f 143/3/5 141/3/5 140/3/5
f 143/3/5 142/3/5 141/3/5
f 143/3/5 139/3/5 133/3/5
f 143/3/5 140/3/5 139/3/5
f 144/3/5 138/3/5 142/3/5
f 144/3/5 142/3/5 143/3/5
f 149/3/5 146/3/5 145/3/5
f 150/3/5 146/3/5 149/3/5
f 153/3/5 148/3/5 147/3/5
f 154/3/5 148/3/5 153/3/5
f 155/2/5 151/2/5 150/2/5
f 156/2/5 151/2/5 155/2/5
f 157/2/5 153/2/5 152/2/5
f 158/2/5 153/2/5 157/2/5
f 163/3/5 160/3/5 159/3/5
f 164/3/5 160/3/5 163/3/5
f 165/3/5 162/3/5 161/3/5
f 166/3/5 162/3/5 165/3/5
f 171/3/5 168/3/5 167/3/5
f 172/3/5 168/3/5 171/3/5
f 173/3/5 170/3/5 169/3/5
f 174/3/5 170/3/5 173/3/5
f 177/3/5 176/3/5 175/3/5
f 178/3/5 176/3/5 177/3/5
f 179/3/5 176/3/5 178/3/5
f 180/3/5 176/3/5 179/3/5
f 181/3/5 179/3/5 178/3/5
f 182/3/5 179/3/5 181/3/5
f 183/2/6 184/2/6 187/2/6
f 187/2/6 184/2/6 188/2/6
f 185/2/6 186/2/6 189/2/6
f 189/2/6 186/2/6 190/2/6
f 191/2/6 192/2/6 193/2/6
f 193/2/6 192/2/6 194/2/6
f 195/3/6 196/3/6 197/3/6
f 197/3/6 196/3/6 198/3/6
